<svg width="236" height="42" viewBox="0 0 236 42" fill="none" xmlns="http://www.w3.org/2000/svg">
<path d="M8.38249 41.6385L11.9437 26.2432L0 15.8884L15.7788 14.5187L21.915 0L28.0512 14.5187L43.83 15.8884L31.8863 26.2432L35.4475 41.6385L21.915 33.4752L8.38249 41.6385Z" fill="#FFCD29"/>
<path d="M56.2125 41.6385L59.7737 26.2432L47.83 15.8884L63.6088 14.5187L69.745 0L75.8812 14.5187L91.66 15.8884L79.7163 26.2432L83.2775 41.6385L69.745 33.4752L56.2125 41.6385Z" fill="#FFCD29"/>
<path d="M104.042 41.6385L107.604 26.2432L95.66 15.8884L111.439 14.5187L117.575 0L123.711 14.5187L139.49 15.8884L127.546 26.2432L131.108 41.6385L117.575 33.4752L104.042 41.6385Z" fill="#FFCD29"/>
<path d="M151.872 41.6385L155.434 26.2432L143.49 15.8884L159.269 14.5187L165.405 0L171.541 14.5187L187.32 15.8884L175.376 26.2432L178.938 41.6385L165.405 33.4752L151.872 41.6385Z" fill="#FFCD29"/>
<path d="M199.702 41.6385L203.264 26.2432L191.32 15.8884L207.099 14.5187L213.235 0L219.371 14.5187L235.15 15.8884L223.206 26.2432L226.768 41.6385L213.235 33.4752L199.702 41.6385Z" fill="#FFCD29"/>
</svg>
