<svg width="18" height="18" viewBox="0 0 18 18" fill="none" xmlns="http://www.w3.org/2000/svg">
<path d="M15.0233 13.5924C15.3683 13.9374 15.9008 13.4049 15.5558 13.0674L12.7433 10.2474C13.7301 9.15596 14.2755 7.73635 14.2733 6.26492C14.2733 2.97242 11.5958 0.294922 8.30325 0.294922C5.01075 0.294922 2.33325 2.97242 2.33325 6.26492C2.33325 9.55742 5.01075 12.2349 8.30325 12.2349C9.78825 12.2349 11.1608 11.6874 12.2108 10.7799L15.0233 13.5924ZM3.0825 6.26492C3.0825 3.38492 5.43 1.04492 8.3025 1.04492C11.1825 1.04492 13.5225 3.38492 13.5225 6.26492C13.5225 9.14492 11.1825 11.4849 8.3025 11.4849C5.43 11.4849 3.0825 9.14492 3.0825 6.26492Z" fill="white"/>
</svg>
