<svg width="165" height="28" viewBox="0 0 165 28" fill="none" xmlns="http://www.w3.org/2000/svg">
<path d="M5.51345 27.3871L7.85577 17.2611L0 10.4503L10.3783 9.54945L14.4143 0L18.4502 9.54945L28.8285 10.4503L20.9727 17.2611L23.3151 27.3871L14.4143 22.0178L5.51345 27.3871Z" fill="#FFCD29"/>
<path d="M36.9729 27.3871L39.3152 17.2611L31.4595 10.4503L41.8377 9.54945L45.8737 0L49.9097 9.54945L60.288 10.4503L52.4322 17.2611L54.7745 27.3871L45.8737 22.0178L36.9729 27.3871Z" fill="#FFCD29"/>
<path d="M68.4324 27.3871L70.7747 17.2611L62.9189 10.4503L73.2972 9.54945L77.3332 0L81.3692 9.54945L91.7474 10.4503L83.8917 17.2611L86.234 27.3871L77.3332 22.0178L68.4324 27.3871Z" fill="#FFCD29"/>
<path d="M99.8919 27.3871L102.234 17.2611L94.3784 10.4503L104.757 9.54945L108.793 0L112.829 9.54945L123.207 10.4503L115.351 17.2611L117.693 27.3871L108.793 22.0178L99.8919 27.3871Z" fill="#FFCD29"/>
<path d="M131.351 27.3871L133.694 17.2611L125.838 10.4503L136.216 9.54945L140.252 0L144.288 9.54945L154.666 10.4503L146.811 17.2611L149.153 27.3871L140.252 22.0178L131.351 27.3871Z" fill="#FFCD29"/>
</svg>
